<svg preserveAspectRatio="none" width="100%" height="100%" overflow="visible" style="display: block;" viewBox="0 0 16.6672 15.1254" fill="none" xmlns="http://www.w3.org/2000/svg">
<path id="Icon" d="M11.4261 0.000556765C10.3408 -0.0151459 9.2092 0.299427 8.33221 1.18265C7.44843 0.301146 6.30598 0.000492143 5.25015 0.000492143C2.62656 0.000492143 0 2.1742 0 5.25047C0 8.21655 1.89712 10.6859 3.77348 12.3647C4.72288 13.2141 5.69662 13.8884 6.48741 14.3529C6.88255 14.5849 7.23872 14.7685 7.52933 14.8964C7.67413 14.9601 7.81001 15.0132 7.93103 15.0516C8.03632 15.085 8.18473 15.1254 8.33358 15.1254C8.48243 15.1254 8.63084 15.085 8.73613 15.0516C8.85715 15.0132 8.99303 14.9601 9.13783 14.8964C9.42844 14.7685 9.78461 14.5849 10.1798 14.3529C10.9705 13.8884 11.9443 13.2141 12.8937 12.3647C14.77 10.6859 16.6672 8.21655 16.6672 5.25047C16.6672 2.16691 14.0345 0.0382986 11.4261 0.000556765Z" fill="#040509"/>
</svg>
