<svg preserveAspectRatio="none" width="100%" height="100%" overflow="visible" style="display: block;" viewBox="0 0 18.2073 13.9429" fill="none" xmlns="http://www.w3.org/2000/svg">
<g id="Union">
<path d="M9.97871 0C7.45398 0 5.40728 1.56061 5.40728 3.48571C5.40728 3.87074 5.81662 4.18286 6.32157 4.18286C6.82651 4.18286 7.23585 3.87074 7.23585 3.48571C7.23585 2.33065 8.46387 1.39429 9.97871 1.39429H13.6359C15.1507 1.39429 16.3787 2.33065 16.3787 3.48571V10.4571C16.3787 11.6122 15.1507 12.5486 13.6359 12.5486H9.97871C8.46387 12.5486 7.23585 11.6122 7.23585 10.4571C7.23585 10.0721 6.82651 9.76 6.32157 9.76C5.81662 9.76 5.40728 10.0721 5.40728 10.4571C5.40728 12.3822 7.45398 13.9429 9.97871 13.9429H13.6359C16.1606 13.9429 18.2073 12.3822 18.2073 10.4571V3.48571C18.2073 1.56061 16.1606 0 13.6359 0H9.97871Z" fill="#A71E1E"/>
<path d="M10.893 6.27429C11.3979 6.27429 11.8073 6.58641 11.8073 6.97143C11.8073 7.35645 11.3979 7.66857 10.893 7.66857V6.27429Z" fill="#A71E1E"/>
<path d="M3.32081 6.27429C3.4022 6.19776 3.48018 6.1235 3.55395 6.05256C3.77839 5.83672 3.96842 5.64714 4.1026 5.51126C4.16975 5.44325 4.22307 5.38854 4.25989 5.35052L4.30247 5.30639L4.31388 5.29448L4.31792 5.29026C4.31796 5.29021 4.31838 5.28977 3.57871 4.88L4.31792 5.29026C4.61472 4.97877 4.52462 4.54231 4.11611 4.316C3.70762 4.0897 3.13589 4.15873 2.83908 4.47018L2.8365 4.47288L2.82715 4.48264L2.78896 4.52222C2.75518 4.55709 2.70525 4.60834 2.6418 4.6726C2.51477 4.80124 2.33421 4.98138 2.12112 5.1863C1.69027 5.60064 1.14459 6.09868 0.646497 6.47847L0 6.97143L0.646497 7.46438C1.14459 7.84418 1.69027 8.34222 2.12112 8.75656C2.33421 8.96148 2.51477 9.14162 2.6418 9.27026C2.70525 9.33451 2.75518 9.38576 2.78896 9.42064L2.82715 9.46021L2.8365 9.46998L2.83864 9.47221C3.13545 9.78366 3.70762 9.85316 4.11611 9.62686C4.52462 9.40055 4.61518 8.96458 4.31838 8.65309L3.57871 9.06286C4.31838 8.65309 4.31842 8.65313 4.31838 8.65309L4.31388 8.64838L4.30247 8.63647L4.25989 8.59234C4.22307 8.55432 4.16975 8.4996 4.1026 8.4316C3.96842 8.29571 3.77839 8.10613 3.55395 7.8903C3.48018 7.81936 3.4022 7.7451 3.32081 7.66857H10.893V6.27429H3.32081Z" fill="#A71E1E"/>
</g>
</svg>
