<svg preserveAspectRatio="none" width="100%" height="100%" overflow="visible" style="display: block;" viewBox="0 0 60.1379 60.1379" fill="none" xmlns="http://www.w3.org/2000/svg">
<g id="Group">
<path id="Vector" d="M30.0608 14.0325C27.4749 8.68083 23.6357 4.04308 18.9292 0.5H20.9017H39.1512H41.1766C39.8017 1.53648 38.4902 2.67874 37.2475 3.91617C34.2596 6.90928 31.8429 10.3255 30.0608 14.0325Z" stroke="#31231B" stroke-miterlimit="10"/>
<path id="Vector_2" d="M2.49893 37.6383C1.80089 38.3364 1.13987 39.0609 0.5 39.8065V20.3037C3.98491 24.365 8.2895 27.7071 13.1599 30.0604C9.25724 31.9377 5.65069 34.4813 2.49893 37.6383Z" stroke="#31231B" stroke-miterlimit="10"/>
<path id="Vector_3" d="M17.565 50.8972C12.9008 55.5614 6.94101 58.4699 0.5 59.2895V55.6883C1.98598 51.0505 4.56661 46.7988 8.1097 43.2558C12.5888 38.7767 18.1996 35.8364 24.2968 34.6995C24.5348 33.1818 24.6564 31.6376 24.6564 30.0723C24.6564 28.5017 24.5242 26.9576 24.2863 25.4451C13.0542 23.3193 3.94261 15.1279 0.5 4.40874V0.849793C14.9685 2.70595 26.19 15.0962 26.19 30.067C26.19 37.9358 23.1281 45.334 17.565 50.8972Z" stroke="#31231B" stroke-miterlimit="10"/>
<path id="Vector_4" d="M41.2083 59.6379H39.2305H20.9862H18.9556C20.3358 58.6015 21.6473 57.4592 22.8847 56.2218C25.8778 53.2287 28.2892 49.8125 30.0766 46.1055C32.6625 51.4571 36.5018 56.0949 41.2083 59.6379Z" stroke="#31231B" stroke-miterlimit="10"/>
<path id="Vector_5" d="M59.6379 39.8329C56.153 35.7663 51.8432 32.4294 46.978 30.0762C50.8807 28.1936 54.4872 25.65 57.639 22.4982C58.337 21.8002 59.0034 21.0704 59.6379 20.3301V39.8329Z" stroke="#31231B" stroke-miterlimit="10"/>
<path id="Vector_6" d="M59.6377 59.288C45.1639 57.4318 33.9424 45.0363 33.9424 30.0707C33.9424 22.2019 37.0095 14.8038 42.5727 9.24058C47.2369 4.5764 53.1967 1.6679 59.6377 0.853515V4.4389C58.1517 9.08193 55.5711 13.3389 52.0227 16.8873C47.5436 21.3664 41.9328 24.3066 35.8356 25.4489C35.5976 26.9666 35.476 28.5107 35.476 30.0707C35.476 31.6413 35.6082 33.1855 35.8461 34.6979C47.0835 36.8238 56.1951 45.0204 59.6377 55.7396V59.288Z" stroke="#31231B" stroke-miterlimit="10"/>
</g>
</svg>
