<svg preserveAspectRatio="none" width="100%" height="100%" overflow="visible" style="display: block;" viewBox="0 0 7.86571 10.6465" fill="none" xmlns="http://www.w3.org/2000/svg">
<g id="Group">
<path id="Vector" d="M3.93286 1.36793e-05C1.76423 1.36793e-05 0 1.76425 0 3.93287C0 4.6468 0.320181 5.41463 0.333599 5.44702C0.43701 5.69247 0.641055 6.07373 0.78819 6.29721L3.48474 10.383C3.59509 10.5505 3.75842 10.6465 3.93286 10.6465C4.10729 10.6465 4.27062 10.5505 4.38097 10.3832L7.07775 6.29721C7.22512 6.07373 7.42893 5.69247 7.53234 5.44702C7.54576 5.41486 7.86571 4.64703 7.86571 3.93287C7.86571 1.76425 6.10148 1.36793e-05 3.93286 1.36793e-05ZM7.10574 5.26749C7.01344 5.4875 6.8235 5.84215 6.69141 6.0425L3.99462 10.1285C3.94142 10.2092 3.92453 10.2092 3.87132 10.1285L1.17454 6.0425C1.04244 5.84215 0.852504 5.48727 0.760198 5.26726C0.756265 5.25778 0.462689 4.55102 0.462689 3.93287C0.462689 2.01942 2.01941 0.462703 3.93286 0.462703C5.84631 0.462703 7.40302 2.01942 7.40302 3.93287C7.40302 4.55195 7.10875 5.26055 7.10574 5.26749Z" fill="#213C2E"/>
<path id="Vector_2" d="M3.93297 1.8511C2.78481 1.8511 1.85087 2.78527 1.85087 3.9332C1.85087 5.08113 2.78481 6.0153 3.93297 6.0153C5.08113 6.0153 6.01507 5.08113 6.01507 3.9332C6.01507 2.78527 5.08113 1.8511 3.93297 1.8511ZM3.93297 5.55261C3.04021 5.55261 2.31356 4.82619 2.31356 3.9332C2.31356 3.04021 3.04021 2.31379 3.93297 2.31379C4.82573 2.31379 5.55238 3.04021 5.55238 3.9332C5.55238 4.82619 4.82573 5.55261 3.93297 5.55261Z" fill="#213C2E"/>
</g>
</svg>
