<svg preserveAspectRatio="none" width="100%" height="100%" overflow="visible" style="display: block;" viewBox="0 0 36 36" fill="none" xmlns="http://www.w3.org/2000/svg">
<g id="Layer 2">
<path id="Social Icon" d="M18 0C8.05922 0 0 8.05922 0 18C0 27.9408 8.05922 36 18 36C27.9408 36 36 27.9408 36 18C36 8.05922 27.9408 0 18 0ZM18 5.48438C19.2779 5.48438 20.527 5.86331 21.5895 6.57325C22.6521 7.2832 23.4802 8.29227 23.9692 9.47287C24.4582 10.6535 24.5862 11.9526 24.3369 13.2059C24.0876 14.4592 23.4722 15.6104 22.5686 16.514C21.665 17.4176 20.5138 18.033 19.2605 18.2823C18.0072 18.5316 16.7081 18.4036 15.5275 17.9146C14.3469 17.4256 13.3378 16.5974 12.6279 15.5349C11.9179 14.4724 11.539 13.2233 11.539 11.9454C11.539 10.2318 12.2197 8.58844 13.4314 7.37676C14.643 6.16509 16.2864 5.48438 18 5.48438ZM28.8014 27.0056C27.4816 28.5887 25.83 29.8624 23.9635 30.7364C22.0969 31.6104 20.0611 32.0635 18 32.0635C15.9389 32.0635 13.9031 31.6104 12.0365 30.7364C10.17 29.8624 8.51835 28.5887 7.19859 27.0056C7.02012 26.7918 6.89448 26.5389 6.83182 26.2675C6.76916 25.9961 6.77124 25.7137 6.83789 25.4433C7.45043 22.9578 8.87468 20.7477 10.8851 19.163C11.185 18.9279 11.5537 18.7976 11.9347 18.7921C12.3157 18.7867 12.688 18.9063 12.9945 19.1327C14.3304 20.1262 16.0819 20.7281 17.9972 20.7281C19.9125 20.7281 21.6633 20.1262 22.9999 19.1327C23.3064 18.9063 23.6787 18.7867 24.0597 18.7921C24.4407 18.7976 24.8094 18.9279 25.1093 19.163C27.1197 20.7477 28.5439 22.9578 29.1565 25.4433C29.2239 25.7133 29.2269 25.9954 29.1652 26.2668C29.1035 26.5382 28.9789 26.7913 28.8014 27.0056Z" fill="#213C2E"/>
</g>
</svg>
