<svg preserveAspectRatio="none" width="100%" height="100%" overflow="visible" style="display: block;" viewBox="0 0 13.1188 13" fill="none" xmlns="http://www.w3.org/2000/svg">
<g id="Group">
<path id="Vector" d="M6.55938 0C2.94246 0 0 2.15424 0 4.80226C0 5.67401 0.534011 6.61158 0.55639 6.65113C0.728863 6.95085 1.06918 7.41638 1.31458 7.68927L5.812 12.6782C5.99605 12.8828 6.26845 13 6.55938 13C6.85031 13 7.12272 12.8828 7.30677 12.6785L11.8046 7.68927C12.0504 7.41638 12.3903 6.95085 12.5628 6.65113C12.5851 6.61186 13.1188 5.67429 13.1188 4.80226C13.1188 2.15424 10.1763 0 6.55938 0ZM11.8513 6.43192C11.6973 6.70056 11.3805 7.13362 11.1602 7.37825L6.6624 12.3675C6.57366 12.4661 6.54549 12.4661 6.45675 12.3675L1.95894 7.37825C1.73862 7.13362 1.42184 6.70028 1.26789 6.43164C1.26133 6.42006 0.771692 5.55706 0.771692 4.80226C0.771692 2.46582 3.36805 0.564972 6.55938 0.564972C9.75071 0.564972 12.3471 2.46582 12.3471 4.80226C12.3471 5.55819 11.8563 6.42345 11.8513 6.43192Z" fill="#213C2E"/>
<path id="Vector_2" d="M6.5594 2.26043C4.64445 2.26043 3.08679 3.40111 3.08679 4.80281C3.08679 6.2045 4.64445 7.34518 6.5594 7.34518C8.47435 7.34518 10.032 6.2045 10.032 4.80281C10.032 3.40111 8.47435 2.26043 6.5594 2.26043ZM6.5594 6.78021C5.07042 6.78021 3.85848 5.8932 3.85848 4.80281C3.85848 3.71241 5.07042 2.82541 6.5594 2.82541C8.04838 2.82541 9.26032 3.71241 9.26032 4.80281C9.26032 5.8932 8.04838 6.78021 6.5594 6.78021Z" fill="#213C2E"/>
</g>
</svg>
