<svg preserveAspectRatio="none" width="100%" height="100%" overflow="visible" style="display: block;" viewBox="0 0 21 21" fill="none" xmlns="http://www.w3.org/2000/svg">
<g id="Group">
<path id="Vector" d="M15.2924 3.39832C14.8944 3.39832 14.5642 3.06819 14.5642 2.67011V0.72821C14.5642 0.330121 14.8944 -1.01049e-06 15.2924 -1.01049e-06C15.6905 -1.01049e-06 16.0207 0.330121 16.0207 0.72821V2.67011C16.0207 3.06819 15.6905 3.39832 15.2924 3.39832ZM5.58296 3.39832C5.18487 3.39832 4.85475 3.06819 4.85475 2.67011V0.72821C4.85475 0.330121 5.18487 -1.01049e-06 5.58296 -1.01049e-06C5.98105 -1.01049e-06 6.31117 0.330121 6.31117 0.72821V2.67011C6.31117 3.06819 5.98105 3.39832 5.58296 3.39832Z" fill="var(--fill-0, white)"/>
<path id="Vector_2" d="M20.8754 6.79664V5.58296C20.8754 3.5731 19.2442 1.94191 17.2343 1.94191H3.64107C1.63121 1.94191 1.68756e-05 3.5731 1.68756e-05 5.58296V6.79664H20.8754ZM1.68756e-05 8.25307V17.2343C1.68756e-05 19.2442 1.63121 20.8754 3.64107 20.8754H17.2343C19.2442 20.8754 20.8754 19.2442 20.8754 17.2343V8.25307H1.68756e-05ZM5.58297 17.2343C5.04894 17.2343 4.61202 16.7974 4.61202 16.2634C4.61202 15.7294 5.04894 15.2924 5.58297 15.2924C6.11699 15.2924 6.55391 15.7294 6.55391 16.2634C6.55391 16.7974 6.11699 17.2343 5.58297 17.2343ZM5.58297 12.3796C5.04894 12.3796 4.61202 11.9427 4.61202 11.4086C4.61202 10.8746 5.04894 10.4377 5.58297 10.4377C6.11699 10.4377 6.55391 10.8746 6.55391 11.4086C6.55391 11.9427 6.11699 12.3796 5.58297 12.3796ZM10.4377 17.2343C9.90368 17.2343 9.46676 16.7974 9.46676 16.2634C9.46676 15.7294 9.90368 15.2924 10.4377 15.2924C10.9717 15.2924 11.4087 15.7294 11.4087 16.2634C11.4087 16.7974 10.9717 17.2343 10.4377 17.2343ZM10.4377 12.3796C9.90368 12.3796 9.46676 11.9427 9.46676 11.4086C9.46676 10.8746 9.90368 10.4377 10.4377 10.4377C10.9717 10.4377 11.4087 10.8746 11.4087 11.4086C11.4087 11.9427 10.9717 12.3796 10.4377 12.3796ZM15.2924 17.2343C14.7584 17.2343 14.3215 16.7974 14.3215 16.2634C14.3215 15.7294 14.7584 15.2924 15.2924 15.2924C15.8265 15.2924 16.2634 15.7294 16.2634 16.2634C16.2634 16.7974 15.8265 17.2343 15.2924 17.2343ZM15.2924 12.3796C14.7584 12.3796 14.3215 11.9427 14.3215 11.4086C14.3215 10.8746 14.7584 10.4377 15.2924 10.4377C15.8265 10.4377 16.2634 10.8746 16.2634 11.4086C16.2634 11.9427 15.8265 12.3796 15.2924 12.3796Z" fill="var(--fill-0, white)"/>
</g>
</svg>
