<svg preserveAspectRatio="none" width="100%" height="100%" overflow="visible" style="display: block;" viewBox="0 0 17 16" fill="none" xmlns="http://www.w3.org/2000/svg">
<path id="Icon" fill-rule="evenodd" clip-rule="evenodd" d="M8.33221 1.18265C9.2092 0.299427 10.3408 -0.0151459 11.4261 0.000556765C14.0345 0.0382986 16.6672 2.16691 16.6672 5.25047C16.6672 8.21655 14.77 10.6859 12.8937 12.3647C11.9443 13.2141 10.9705 13.8884 10.1798 14.3529C9.78461 14.5849 9.42844 14.7685 9.13783 14.8964C8.99303 14.9601 8.85715 15.0132 8.73613 15.0516C8.63084 15.085 8.48243 15.1254 8.33358 15.1254C8.18473 15.1254 8.03632 15.085 7.93103 15.0516C7.81001 15.0132 7.67413 14.9601 7.52933 14.8964C7.23872 14.7685 6.88255 14.5849 6.48741 14.3529C5.69662 13.8884 4.72288 13.2141 3.77348 12.3647C1.89712 10.6859 0 8.21655 0 5.25047C0 2.1742 2.62656 0.000492143 5.25015 0.000492143C6.30598 0.000492143 7.44843 0.301146 8.33221 1.18265ZM11.408 1.25043C10.4098 1.23598 9.47964 1.57485 8.85361 2.51386C8.73769 2.68773 8.54255 2.79216 8.33358 2.79216C8.12461 2.79217 7.92947 2.68773 7.81356 2.51386C7.1913 1.58053 6.24421 1.25049 5.25015 1.25049C3.24859 1.25049 1.25 2.93095 1.25 5.25047C1.25 7.68024 2.82174 9.83588 4.60696 11.4331C5.48834 12.2217 6.39357 12.8481 7.12041 13.275C7.48408 13.4886 7.79639 13.6482 8.03273 13.7522C8.15141 13.8044 8.24363 13.8394 8.30892 13.8601C8.31825 13.863 8.32645 13.8655 8.33358 13.8676C8.34071 13.8655 8.34891 13.863 8.35824 13.8601C8.42353 13.8394 8.51575 13.8044 8.63442 13.7522C8.87077 13.6482 9.18308 13.4886 9.54675 13.275C10.2736 12.8481 11.1788 12.2217 12.0602 11.4331C13.8454 9.83588 15.4172 7.68024 15.4172 5.25047C15.4172 2.93824 13.4247 1.27961 11.408 1.25043Z" fill="var(--fill-0, #040509)"/>
</svg>
