<svg preserveAspectRatio="none" width="100%" height="100%" overflow="visible" style="display: block;" viewBox="0 0 19.0801 19.0798" fill="none" xmlns="http://www.w3.org/2000/svg">
<g id="Layer 14">
<path id="Vector" d="M9.54015 9.08566C12.0491 9.08566 14.083 7.05176 14.083 4.54283C14.083 2.03389 12.0491 0 9.54015 0C7.03121 0 4.99732 2.03389 4.99732 4.54283C4.99732 7.05176 7.03121 9.08566 9.54015 9.08566Z" fill="#213C2E"/>
<path id="Vector_2" d="M10.5031 9.99413H8.57696C7.44705 9.9977 6.32891 10.2238 5.28638 10.6595C4.24384 11.0952 3.29734 11.732 2.5009 12.5335C1.70446 13.335 1.07369 14.2855 0.644606 15.3308C0.215518 16.376 -0.00348593 17.4956 9.91797e-05 18.6255C9.91797e-05 18.746 0.0479611 18.8615 0.133156 18.9467C0.21835 19.0319 0.333899 19.0798 0.454382 19.0798H18.6257C18.7518 19.0683 18.8688 19.0094 18.9532 18.9149C19.0375 18.8205 19.0828 18.6976 19.08 18.571C19.0752 16.2977 18.17 14.119 16.5626 12.5115C14.9551 10.9041 12.7764 9.99893 10.5031 9.99413Z" fill="#213C2E"/>
</g>
</svg>
