<svg preserveAspectRatio="none" width="100%" height="100%" overflow="visible" style="display: block;" viewBox="0 0 299.875 23" fill="none" xmlns="http://www.w3.org/2000/svg">
<g id="Group 6860">
<g id="Group">
<path id="Vector" d="M299.503 10.4474C299.389 10.3882 299.262 10.3613 299.134 10.3695C299.006 10.3777 298.883 10.4207 298.777 10.4939L291.075 15.8893C290.359 16.3916 289.391 16.3916 288.675 15.8893L280.973 10.5032C280.868 10.4298 280.745 10.3867 280.617 10.3786C280.489 10.3704 280.362 10.3977 280.248 10.4572C280.135 10.5168 280.04 10.6064 279.974 10.7162C279.908 10.8261 279.874 10.9519 279.875 11.08V18.9869C279.875 20.652 281.233 22.0102 282.898 22.0102H296.852C298.517 22.0102 299.875 20.652 299.875 18.9869V11.08C299.874 10.9524 299.839 10.8273 299.774 10.7177C299.708 10.6081 299.615 10.518 299.503 10.4567V10.4474Z" fill="#F3F3F3"/>
<path id="Vector_2" d="M289.206 15.1349C289.606 15.4139 290.136 15.4139 290.536 15.1349L297.075 10.5488V4.55814C297.075 3.14419 295.931 2 294.517 2H285.224C283.81 2 282.666 3.14419 282.666 4.55814V10.5488L289.206 15.1349ZM286.359 8.25116C286.629 7.98139 287.075 7.98139 287.345 8.25116L289.15 10.0558L292.378 6.4186C292.638 6.13023 293.075 6.10232 293.364 6.36279C293.652 6.62325 293.68 7.06046 293.419 7.34883L289.699 11.5349C289.568 11.6744 289.392 11.7674 289.196 11.7674H289.178C288.993 11.7673 288.815 11.6937 288.685 11.5628L286.359 9.2372C286.229 9.10591 286.157 8.92877 286.157 8.74418C286.157 8.55959 286.229 8.38245 286.359 8.25116Z" fill="#F3F3F3"/>
<path id="Vector_3" d="M281.503 9.74012L284.061 11.5262V8.8378C284.061 8.56803 283.903 8.32617 283.67 8.20524C283.552 8.14924 283.42 8.1274 283.291 8.1422C283.161 8.15699 283.038 8.20783 282.935 8.28896L281.279 9.60989C281.354 9.6471 281.437 9.67501 281.512 9.73082L281.503 9.74012ZM298.247 9.74012C298.321 9.69361 298.405 9.6564 298.479 9.61919L296.823 8.29826C296.721 8.21602 296.598 8.16458 296.467 8.14995C296.337 8.13532 296.205 8.15811 296.087 8.21565C295.969 8.27319 295.869 8.36312 295.801 8.47493C295.732 8.58674 295.696 8.71582 295.698 8.8471V11.5355L298.256 9.74943L298.247 9.74012Z" fill="#F3F3F3"/>
</g>
<path id="Vector_4" d="M207.875 7.19355C207.875 6.34657 208.217 5.53427 208.825 4.93537C209.433 4.33646 210.258 4 211.119 4H227.631C228.492 4 229.317 4.33646 229.925 4.93537C230.533 5.53427 230.875 6.34657 230.875 7.19355V10.6774C230.875 10.9084 230.782 11.1299 230.616 11.2933C230.45 11.4566 230.225 11.5484 229.99 11.5484C229.599 11.5484 229.224 11.7013 228.948 11.9736C228.671 12.2458 228.516 12.615 228.516 13C228.516 13.385 228.671 13.7542 228.948 14.0264C229.224 14.2987 229.599 14.4516 229.99 14.4516C230.225 14.4516 230.45 14.5434 230.616 14.7067C230.782 14.8701 230.875 15.0916 230.875 15.3226V18.8065C230.875 19.6534 230.533 20.4657 229.925 21.0646C229.317 21.6635 228.492 22 227.631 22H211.119C210.258 22 209.433 21.6635 208.825 21.0646C208.217 20.4657 207.875 19.6534 207.875 18.8065V15.3226C207.875 15.0916 207.968 14.8701 208.134 14.7067C208.3 14.5434 208.525 14.4516 208.76 14.4516C209.151 14.4516 209.526 14.2987 209.802 14.0264C210.079 13.7542 210.234 13.385 210.234 13C210.234 12.615 210.079 12.2458 209.802 11.9736C209.526 11.7013 209.151 11.5484 208.76 11.5484C208.525 11.5484 208.3 11.4566 208.134 11.2933C207.968 11.1299 207.875 10.9084 207.875 10.6774V7.19355ZM220.26 8.35484C220.26 8.12384 220.166 7.90231 220.001 7.73897C219.835 7.57563 219.61 7.48387 219.375 7.48387C219.14 7.48387 218.915 7.57563 218.749 7.73897C218.584 7.90231 218.49 8.12384 218.49 8.35484V8.93548C218.49 9.16648 218.584 9.38801 218.749 9.55135C218.915 9.71469 219.14 9.80645 219.375 9.80645C219.61 9.80645 219.835 9.71469 220.001 9.55135C220.166 9.38801 220.26 9.16648 220.26 8.93548V8.35484ZM220.26 12.7097C220.26 12.4787 220.166 12.2571 220.001 12.0938C219.835 11.9305 219.61 11.8387 219.375 11.8387C219.14 11.8387 218.915 11.9305 218.749 12.0938C218.584 12.2571 218.49 12.4787 218.49 12.7097V13.2903C218.49 13.5213 218.584 13.7429 218.749 13.9062C218.915 14.0695 219.14 14.1613 219.375 14.1613C219.61 14.1613 219.835 14.0695 220.001 13.9062C220.166 13.7429 220.26 13.5213 220.26 13.2903V12.7097ZM220.26 17.0645C220.26 16.8335 220.166 16.612 220.001 16.4486C219.835 16.2853 219.61 16.1935 219.375 16.1935C219.14 16.1935 218.915 16.2853 218.749 16.4486C218.584 16.612 218.49 16.8335 218.49 17.0645V17.6452C218.49 17.8762 218.584 18.0977 218.749 18.261C218.915 18.4244 219.14 18.5161 219.375 18.5161C219.61 18.5161 219.835 18.4244 220.001 18.261C220.166 18.0977 220.26 17.8762 220.26 17.6452V17.0645Z" fill="white"/>
<path id="Vector_5" fill-rule="evenodd" clip-rule="evenodd" d="M20 8.39456C20 7.90022 19.8864 7.41267 19.6682 6.97052C19.45 6.52837 19.1332 6.14376 18.7429 5.84716L11.8857 0.636561C11.3416 0.223353 10.68 0 10 0C9.32003 0 8.65838 0.223353 8.11429 0.636561L1.25714 5.84716C0.866812 6.14376 0.550002 6.52837 0.3318 6.97052C0.113599 7.41267 0 7.90022 0 8.39456V18.8157C0 19.2339 0.0812924 19.648 0.239236 20.0343C0.397179 20.4206 0.62868 20.7717 0.920521 21.0674C1.21236 21.363 1.55883 21.5976 1.94014 21.7576C2.32145 21.9176 2.73013 22 3.14286 22H16.8571C17.6907 22 18.4901 21.6645 19.0795 21.0674C19.6689 20.4702 20 19.6603 20 18.8157V8.39456ZM7.71429 18.5263H12.2857C12.513 18.5263 12.7311 18.4348 12.8918 18.2719C13.0526 18.1091 13.1429 17.8882 13.1429 17.6578C13.1429 17.4275 13.0526 17.2066 12.8918 17.0438C12.7311 16.8809 12.513 16.7894 12.2857 16.7894H7.71429C7.48696 16.7894 7.26894 16.8809 7.10819 17.0438C6.94745 17.2066 6.85714 17.4275 6.85714 17.6578C6.85714 17.8882 6.94745 18.1091 7.10819 18.2719C7.26894 18.4348 7.48696 18.5263 7.71429 18.5263Z" fill="white"/>
<g id="Group_2">
<path id="Vector_6" d="M84.2922 4.39832C83.8941 4.39832 83.564 4.06819 83.564 3.67011V1.72821C83.564 1.33012 83.8941 1 84.2922 1C84.6903 1 85.0204 1.33012 85.0204 1.72821V3.67011C85.0204 4.06819 84.6903 4.39832 84.2922 4.39832ZM74.5827 4.39832C74.1846 4.39832 73.8545 4.06819 73.8545 3.67011V1.72821C73.8545 1.33012 74.1846 1 74.5827 1C74.9808 1 75.3109 1.33012 75.3109 1.72821V3.67011C75.3109 4.06819 74.9808 4.39832 74.5827 4.39832Z" fill="white"/>
<path id="Vector_7" d="M89.8754 7.79712V6.58344C89.8754 4.57357 88.2442 2.94238 86.2343 2.94238H72.6411C70.6312 2.94238 69 4.57357 69 6.58344V7.79712H89.8754ZM69 9.25354V18.2348C69 20.2447 70.6312 21.8759 72.6411 21.8759H86.2343C88.2442 21.8759 89.8754 20.2447 89.8754 18.2348V9.25354H69ZM74.5829 18.2348C74.0489 18.2348 73.612 17.7979 73.612 17.2639C73.612 16.7298 74.0489 16.2929 74.5829 16.2929C75.117 16.2929 75.5539 16.7298 75.5539 17.2639C75.5539 17.7979 75.117 18.2348 74.5829 18.2348ZM74.5829 13.3801C74.0489 13.3801 73.612 12.9431 73.612 12.4091C73.612 11.8751 74.0489 11.4382 74.5829 11.4382C75.117 11.4382 75.5539 11.8751 75.5539 12.4091C75.5539 12.9431 75.117 13.3801 74.5829 13.3801ZM79.4377 18.2348C78.9037 18.2348 78.4667 17.7979 78.4667 17.2639C78.4667 16.7298 78.9037 16.2929 79.4377 16.2929C79.9717 16.2929 80.4086 16.7298 80.4086 17.2639C80.4086 17.7979 79.9717 18.2348 79.4377 18.2348ZM79.4377 13.3801C78.9037 13.3801 78.4667 12.9431 78.4667 12.4091C78.4667 11.8751 78.9037 11.4382 79.4377 11.4382C79.9717 11.4382 80.4086 11.8751 80.4086 12.4091C80.4086 12.9431 79.9717 13.3801 79.4377 13.3801ZM84.2924 18.2348C83.7584 18.2348 83.3215 17.7979 83.3215 17.2639C83.3215 16.7298 83.7584 16.2929 84.2924 16.2929C84.8264 16.2929 85.2634 16.7298 85.2634 17.2639C85.2634 17.7979 84.8264 18.2348 84.2924 18.2348ZM84.2924 13.3801C83.7584 13.3801 83.3215 12.9431 83.3215 12.4091C83.3215 11.8751 83.7584 11.4382 84.2924 11.4382C84.8264 11.4382 85.2634 11.8751 85.2634 12.4091C85.2634 12.9431 84.8264 13.3801 84.2924 13.3801Z" fill="white"/>
</g>
<path id="Vector_8" d="M140.875 12C139.77 12 138.875 11.1046 138.875 10V5C138.875 3.89543 139.77 3 140.875 3H145.875C146.98 3 147.875 3.89543 147.875 5V10C147.875 11.1046 146.98 12 145.875 12H140.875ZM138.875 16C138.875 14.8954 139.77 14 140.875 14H145.875C146.98 14 147.875 14.8954 147.875 16V21C147.875 22.1046 146.98 23 145.875 23H140.875C139.77 23 138.875 22.1046 138.875 21V16ZM151.875 3C150.77 3 149.875 3.89543 149.875 5V10C149.875 11.1046 150.77 12 151.875 12H156.875C157.98 12 158.875 11.1046 158.875 10V5C158.875 3.89543 157.98 3 156.875 3H151.875ZM151.875 23C150.77 23 149.875 22.1046 149.875 21V16C149.875 14.8954 150.77 14 151.875 14H156.875C157.98 14 158.875 14.8954 158.875 16V21C158.875 22.1046 157.98 23 156.875 23H151.875Z" fill="white"/>
</g>
</svg>
