<svg preserveAspectRatio="none" width="100%" height="100%" overflow="visible" style="display: block;" viewBox="0 0 21 21" fill="none" xmlns="http://www.w3.org/2000/svg">
<path id="Vector" d="M2.1 11.55V13.65H18.9V11.55H2.1ZM2.1 0H18.9C19.4775 0 19.972 0.2058 20.3836 0.6174C20.7952 1.029 21.0007 1.5232 21 2.1V13.65C21 14.2275 20.7945 14.722 20.3836 15.1336C19.9727 15.5452 19.4782 15.7507 18.9 15.75H14.7V21L10.5 18.9L6.3 21V15.75H2.1C1.5225 15.75 1.0283 15.5445 0.6174 15.1336C0.2065 14.7227 0.0007 14.2282 0 13.65V2.1C0 1.5225 0.2058 1.0283 0.6174 0.6174C1.029 0.2065 1.5232 0.0007 2.1 0ZM2.1 8.4H18.9V2.1H2.1V8.4Z" fill="#6C7072"/>
</svg>
