<svg preserveAspectRatio="none" width="100%" height="100%" overflow="visible" style="display: block;" viewBox="0 0 15.293 11" fill="none" xmlns="http://www.w3.org/2000/svg">
<path id="Wifi" d="M5.4336 8.42674C6.71085 7.34447 8.58213 7.34447 9.85938 8.42674C9.92355 8.48495 9.96015 8.56757 9.96192 8.65428C9.96364 8.741 9.92997 8.82496 9.86817 8.88572L7.86817 10.9072C7.80957 10.9666 7.72984 10.9999 7.64649 11C7.56315 11 7.48343 10.9666 7.42481 10.9072L5.42383 8.88572C5.3621 8.82494 5.32832 8.74097 5.33008 8.65428C5.33192 8.56751 5.3693 8.48491 5.4336 8.42674ZM2.76465 5.72947C5.51642 3.16519 9.77751 3.16524 12.5293 5.72947C12.5914 5.78961 12.6271 5.87243 12.6279 5.95897C12.6287 6.04532 12.5949 6.12813 12.5342 6.18943L11.3779 7.36033C11.2588 7.47962 11.0665 7.48228 10.9443 7.36619C10.0407 6.54642 8.8646 6.0917 7.64551 6.09178C6.42736 6.09238 5.25258 6.54704 4.34961 7.36619C4.2274 7.48223 4.03508 7.47967 3.91602 7.36033L2.75977 6.18943C2.69906 6.12823 2.66526 6.04526 2.66602 5.95897C2.66684 5.8724 2.70249 5.78961 2.76465 5.72947ZM0.0966847 3.03904C4.31734 -1.01297 10.9757 -1.01306 15.1963 3.03904C15.2574 3.09925 15.2925 3.18171 15.293 3.26756C15.2934 3.35332 15.2596 3.4362 15.1992 3.49705L14.041 4.66697C13.9217 4.78682 13.7284 4.78807 13.6074 4.6699C11.9994 3.13846 9.8652 2.28426 7.64649 2.28416C5.4277 2.28421 3.29373 3.13849 1.68555 4.6699C1.56453 4.78833 1.37017 4.78725 1.25098 4.66697L0.093755 3.49705C0.0334851 3.43617 -0.00047447 3.3533 5.00943e-06 3.26756C0.000568782 3.18171 0.0355455 3.0992 0.0966847 3.03904Z" fill="white"/>
</svg>
