<svg preserveAspectRatio="none" width="100%" height="100%" overflow="visible" style="display: block;" viewBox="0 0 31 30" fill="none" xmlns="http://www.w3.org/2000/svg">
<path id="Vector" d="M30.9999 25.4004C30.9999 25.7136 30.8774 26.014 30.6594 26.2355C30.4414 26.457 30.1457 26.5814 29.8374 26.5814H21.9324C21.6735 27.5622 21.1033 28.4288 20.3102 29.0469C19.5172 29.665 18.5455 30 17.5459 30C16.5464 30 15.5747 29.665 14.7816 29.0469C13.9886 28.4288 13.4184 27.5622 13.1595 26.5814H1.1625C0.854183 26.5814 0.558497 26.457 0.340487 26.2355C0.122477 26.014 0 25.7136 0 25.4004C0 25.0872 0.122477 24.7868 0.340487 24.5654C0.558497 24.3439 0.854183 24.2195 1.1625 24.2195H13.1595C13.4184 23.2387 13.9886 22.372 14.7816 21.7539C15.5747 21.1359 16.5464 20.8009 17.5459 20.8009C18.5455 20.8009 19.5172 21.1359 20.3102 21.7539C21.1033 22.372 21.6735 23.2387 21.9324 24.2195H29.8374C30.1457 24.2195 30.4414 24.3439 30.6594 24.5654C30.8774 24.7868 30.9999 25.0872 30.9999 25.4004ZM30.9999 4.59958C30.9999 4.91279 30.8774 5.21317 30.6594 5.43465C30.4414 5.65612 30.1457 5.78055 29.8374 5.78055H26.0399C25.781 6.76135 25.2108 7.62797 24.4177 8.24605C23.6246 8.86414 22.653 9.19915 21.6534 9.19915C20.6539 9.19915 19.6822 8.86414 18.8891 8.24605C18.0961 7.62797 17.5259 6.76135 17.2669 5.78055H1.1625C1.00983 5.78055 0.858669 5.75 0.717628 5.69065C0.576588 5.6313 0.448435 5.54431 0.340487 5.43465C0.232539 5.32499 0.146911 5.1948 0.0884896 5.05151C0.0300687 4.90823 0 4.75466 0 4.59958C0 4.44449 0.0300687 4.29092 0.0884896 4.14764C0.146911 4.00436 0.232539 3.87417 0.340487 3.7645C0.448435 3.65484 0.576588 3.56785 0.717628 3.5085C0.858669 3.44915 1.00983 3.4186 1.1625 3.4186H17.2669C17.5259 2.43781 18.0961 1.57118 18.8891 0.953097C19.6822 0.335013 20.6539 0 21.6534 0C22.653 0 23.6246 0.335013 24.4177 0.953097C25.2108 1.57118 25.781 2.43781 26.0399 3.4186H29.8374C29.9906 3.41649 30.1427 3.44559 30.2847 3.50418C30.4267 3.56278 30.5557 3.64969 30.6641 3.75978C30.7724 3.86987 30.858 4.0009 30.9157 4.14514C30.9733 4.28938 31.002 4.4439 30.9999 4.59958ZM30.9999 14.9921C31.002 15.1478 30.9733 15.3023 30.9157 15.4466C30.858 15.5908 30.7724 15.7218 30.6641 15.8319C30.5557 15.942 30.4267 16.0289 30.2847 16.0875C30.1427 16.1461 29.9906 16.1752 29.8374 16.1731H11.7025C11.4435 17.1539 10.8733 18.0205 10.0803 18.6386C9.28719 19.2567 8.31554 19.5917 7.31597 19.5917C6.31641 19.5917 5.34476 19.2567 4.55168 18.6386C3.7586 18.0205 3.1884 17.1539 2.92949 16.1731H1.1625C0.854183 16.1731 0.558497 16.0487 0.340487 15.8272C0.122477 15.6057 0 15.3053 0 14.9921C0 14.6789 0.122477 14.3785 0.340487 14.1571C0.558497 13.9356 0.854183 13.8112 1.1625 13.8112H2.92949C3.1884 12.8304 3.7586 11.9637 4.55168 11.3456C5.34476 10.7276 6.31641 10.3926 7.31597 10.3926C8.31554 10.3926 9.28719 10.7276 10.0803 11.3456C10.8733 11.9637 11.4435 12.8304 11.7025 13.8112H29.8374C30.1457 13.8112 30.4414 13.9356 30.6594 14.1571C30.8774 14.3785 30.9999 14.6789 30.9999 14.9921Z" fill="#213C2E"/>
</svg>
