<svg preserveAspectRatio="none" width="100%" height="100%" overflow="visible" style="display: block;" viewBox="0 0 68 68" fill="none" xmlns="http://www.w3.org/2000/svg">
<g id="Mask group">
<mask id="mask0_0_81" style="mask-type:alpha" maskUnits="userSpaceOnUse" x="0" y="0" width="68" height="68">
<circle id="Ellipse 8" cx="34" cy="34" r="34" fill="white"/>
</mask>
<g mask="url(#mask0_0_81)">
<g id="unsplash:bqe0J0b26RQ">
</g>
<path id="Social Icon" d="M34 1C15.7752 1 1 15.7752 1 34C1 52.2248 15.7752 67 34 67C52.2248 67 67 52.2248 67 34C67 15.7752 52.2248 1 34 1ZM34 11.0547C36.3428 11.0547 38.6329 11.7494 40.5808 13.051C42.5288 14.3525 44.047 16.2025 44.9435 18.3669C45.8401 20.5313 46.0746 22.913 45.6176 25.2108C45.1605 27.5085 44.0324 29.6191 42.3758 31.2757C40.7192 32.9323 38.6086 34.0604 36.3109 34.5175C34.0131 34.9745 31.6315 34.74 29.467 33.8434C27.3026 32.9469 25.4526 31.4287 24.1511 29.4807C22.8495 27.5328 22.1548 25.2426 22.1548 22.8999C22.1548 19.7583 23.4028 16.7455 25.6242 14.5241C27.8456 12.3027 30.8585 11.0547 34 11.0547ZM53.8026 50.5103C51.383 53.4127 48.3551 55.7477 44.933 57.3501C41.511 58.9525 37.7786 59.7831 34 59.7831C30.2214 59.7831 26.489 58.9525 23.067 57.3501C19.6449 55.7477 16.617 53.4127 14.1974 50.5103C13.8702 50.1182 13.6399 49.6547 13.525 49.1571C13.4101 48.6595 13.4139 48.1419 13.5361 47.646C14.6591 43.0892 17.2702 39.0374 20.956 36.1321C21.5058 35.7011 22.1817 35.4623 22.8802 35.4523C23.5787 35.4423 24.2613 35.6616 24.8232 36.0767C27.2724 37.8981 30.4834 39.0016 33.9948 39.0016C37.5063 39.0016 40.716 37.8981 43.1665 36.0767C43.7284 35.6616 44.411 35.4423 45.1095 35.4523C45.808 35.4623 46.4839 35.7011 47.0337 36.1321C50.7194 39.0374 53.3306 43.0892 54.4536 47.646C54.5771 48.1411 54.5826 48.6582 54.4695 49.1558C54.3565 49.6533 54.128 50.1173 53.8026 50.5103Z" fill="#213C2E"/>
</g>
</g>
</svg>
