<svg preserveAspectRatio="none" width="100%" height="100%" overflow="visible" style="display: block;" viewBox="0 0 19 19" fill="none" xmlns="http://www.w3.org/2000/svg">
<g id="Group">
<path id="Vector" d="M18.8392 18.0567L14.5219 13.74C15.8495 12.2347 16.5806 10.2958 16.5775 8.28873C16.5775 6.07453 15.7154 3.99296 14.15 2.42749C12.5845 0.862028 10.5029 0 8.28928 0C6.07564 0 3.99351 0.862028 2.42749 2.42694C0.861475 3.99185 0 6.07398 0 8.28818C0 10.5024 0.862028 12.5834 2.42749 14.1489C3.99296 15.7143 6.07453 16.5769 8.28873 16.5769C10.3167 16.5769 12.2286 15.8458 13.74 14.5207L18.0567 18.8375C18.1079 18.889 18.1688 18.9299 18.2358 18.9578C18.3029 18.9856 18.3748 19 18.4474 19C18.52 19 18.5919 18.9856 18.659 18.9578C18.726 18.9299 18.7869 18.889 18.8381 18.8375C18.9417 18.7339 18.9999 18.5934 18.9999 18.4468C18.9999 18.3003 18.9417 18.1598 18.8381 18.0562L18.8392 18.0567ZM3.20884 13.3681C1.85226 12.0109 1.10516 10.2073 1.10516 8.28873C1.10516 6.37017 1.85226 4.56599 3.20884 3.20884C4.56599 1.85225 6.36961 1.10516 8.28873 1.10516C10.2078 1.10516 12.0115 1.85225 13.3686 3.20884C14.7252 4.56599 15.4728 6.36961 15.4728 8.28873C15.4728 10.2078 14.7252 12.0109 13.3686 13.3681C12.0115 14.7247 10.2078 15.4723 8.28928 15.4723C6.37072 15.4723 4.56543 14.7247 3.20884 13.3681Z" fill="var(--fill-0, #213C2E)"/>
</g>
</svg>
