<svg preserveAspectRatio="none" width="100%" height="100%" overflow="visible" style="display: block;" viewBox="0 0 14.0374 19" fill="none" xmlns="http://www.w3.org/2000/svg">
<g id="Group">
<g id="Vector">
<mask id="path-1-inside-1_0_7" fill="white">
<path d="M7.01869 0C3.1485 0 0 3.1485 0 7.01869C0 8.29279 0.571404 9.66308 0.59535 9.72088C0.7799 10.1589 1.14405 10.8393 1.40663 11.2382L6.21897 18.5297C6.41591 18.8287 6.70739 19 7.01869 19C7.32999 19 7.62147 18.8287 7.81841 18.5302L12.6312 11.2382C12.8942 10.8393 13.2579 10.1589 13.4424 9.72088C13.4664 9.66349 14.0374 8.2932 14.0374 7.01869C14.0374 3.1485 10.8889 0 7.01869 0ZM12.6811 9.4005C12.5164 9.79313 12.1774 10.4261 11.9417 10.7836L7.12892 18.0756C7.03396 18.2197 7.00382 18.2197 6.90887 18.0756L2.09611 10.7836C1.86036 10.4261 1.5214 9.79272 1.35667 9.40009C1.34965 9.38316 0.825728 8.12186 0.825728 7.01869C0.825728 3.60389 3.60389 0.825728 7.01869 0.825728C10.4335 0.825728 13.2116 3.60389 13.2116 7.01869C13.2116 8.12351 12.6865 9.38811 12.6811 9.4005Z"/>
</mask>
<path d="M7.01869 0C3.1485 0 0 3.1485 0 7.01869C0 8.29279 0.571404 9.66308 0.59535 9.72088C0.7799 10.1589 1.14405 10.8393 1.40663 11.2382L6.21897 18.5297C6.41591 18.8287 6.70739 19 7.01869 19C7.32999 19 7.62147 18.8287 7.81841 18.5302L12.6312 11.2382C12.8942 10.8393 13.2579 10.1589 13.4424 9.72088C13.4664 9.66349 14.0374 8.2932 14.0374 7.01869C14.0374 3.1485 10.8889 0 7.01869 0ZM12.6811 9.4005C12.5164 9.79313 12.1774 10.4261 11.9417 10.7836L7.12892 18.0756C7.03396 18.2197 7.00382 18.2197 6.90887 18.0756L2.09611 10.7836C1.86036 10.4261 1.5214 9.79272 1.35667 9.40009C1.34965 9.38316 0.825728 8.12186 0.825728 7.01869C0.825728 3.60389 3.60389 0.825728 7.01869 0.825728C10.4335 0.825728 13.2116 3.60389 13.2116 7.01869C13.2116 8.12351 12.6865 9.38811 12.6811 9.4005Z" fill="var(--fill-0, #213C2E)" fill-opacity="0.79"/>
<path d="M0.59535 9.72088L-0.328523 10.1036L-0.326204 10.1091L0.59535 9.72088ZM1.40663 11.2382L0.571398 11.7881L0.572012 11.789L1.40663 11.2382ZM6.21897 18.5297L7.05402 17.9796L7.05359 17.9789L6.21897 18.5297ZM7.81841 18.5302L6.9838 17.9793L6.9837 17.9795L7.81841 18.5302ZM12.6312 11.2382L13.4658 11.789L13.466 11.7887L12.6312 11.2382ZM13.4424 9.72088L14.364 10.1091L14.3653 10.106L13.4424 9.72088ZM12.6811 9.4005L11.7635 9.00286L11.759 9.01361L12.6811 9.4005ZM11.9417 10.7836L12.7763 11.3344L12.7765 11.3341L11.9417 10.7836ZM7.12892 18.0756L6.29431 17.5248L6.29394 17.5253L7.12892 18.0756ZM6.90887 18.0756L7.74385 17.5253L7.74347 17.5248L6.90887 18.0756ZM2.09611 10.7836L1.26125 11.3341L1.2615 11.3344L2.09611 10.7836ZM1.35667 9.40009L0.43292 9.7831L0.434543 9.78697L1.35667 9.40009ZM7.01869 0V-1C2.59622 -1 -1 2.59622 -1 7.01869H0H1C1 3.70079 3.70079 1 7.01869 1V0ZM0 7.01869H-1C-1 8.51303 -0.350845 10.0497 -0.328506 10.1036L0.59535 9.72088L1.51921 9.33814C1.49365 9.27646 1 8.07254 1 7.01869H0ZM0.59535 9.72088L-0.326204 10.1091C-0.117552 10.6044 0.275633 11.3388 0.571398 11.7881L1.40663 11.2382L2.24186 10.6883C2.01246 10.3398 1.67735 9.71347 1.5169 9.33263L0.59535 9.72088ZM1.40663 11.2382L0.572012 11.789L5.38435 19.0806L6.21897 18.5297L7.05359 17.9789L2.24124 10.6873L1.40663 11.2382ZM6.21897 18.5297L5.38392 19.0799C5.73362 19.6107 6.31643 20 7.01869 20V19V18C7.03316 18 7.0471 18.0021 7.05928 18.0055C7.0713 18.0088 7.07915 18.0128 7.08279 18.0149C7.09017 18.0193 7.07636 18.0135 7.05402 17.9796L6.21897 18.5297ZM7.01869 19V20C7.72076 20 8.30341 19.6109 8.65311 19.0809L7.81841 18.5302L6.9837 17.9795C6.96141 18.0133 6.94758 18.0191 6.95483 18.0148C6.95841 18.0127 6.9662 18.0088 6.97817 18.0055C6.9903 18.0021 7.00421 18 7.01869 18V19ZM7.81841 18.5302L8.65301 19.081L13.4658 11.789L12.6312 11.2382L11.7966 10.6873L6.9838 17.9793L7.81841 18.5302ZM12.6312 11.2382L13.466 11.7887C13.7627 11.3387 14.1555 10.604 14.364 10.1091L13.4424 9.72088L12.5209 9.33263C12.3603 9.71387 12.0256 10.34 11.7963 10.6877L12.6312 11.2382ZM13.4424 9.72088L14.3653 10.106C14.3891 10.049 15.0374 8.51331 15.0374 7.01869H14.0374H13.0374C13.0374 8.07309 12.5437 9.278 12.5196 9.3358L13.4424 9.72088ZM14.0374 7.01869H15.0374C15.0374 2.59622 11.4412 -1 7.01869 -1V0V1C10.3366 1 13.0374 3.70079 13.0374 7.01869H14.0374ZM12.6811 9.4005L11.759 9.01361C11.6188 9.34778 11.3093 9.92605 11.1068 10.2331L11.9417 10.7836L12.7765 11.3341C13.0456 10.9261 13.414 10.2385 13.6032 9.78739L12.6811 9.4005ZM11.9417 10.7836L11.1071 10.2327L6.29431 17.5248L7.12892 18.0756L7.96353 18.6264L12.7763 11.3344L11.9417 10.7836ZM7.12892 18.0756L6.29394 17.5253C6.27286 17.5573 6.29823 17.5132 6.35385 17.4565C6.39692 17.4126 6.62665 17.1837 7.01889 17.1837C7.41113 17.1837 7.64086 17.4126 7.68393 17.4565C7.73955 17.5132 7.76493 17.5573 7.74385 17.5253L6.90887 18.0756L6.07388 18.6259C6.10028 18.6659 6.16503 18.7641 6.25598 18.8568C6.33438 18.9368 6.59538 19.1837 7.01889 19.1837C7.44241 19.1837 7.70341 18.9368 7.78181 18.8568C7.87275 18.7641 7.9375 18.6659 7.96391 18.6259L7.12892 18.0756ZM6.90887 18.0756L7.74347 17.5248L2.93072 10.2327L2.09611 10.7836L1.2615 11.3344L6.07426 18.6264L6.90887 18.0756ZM2.09611 10.7836L2.93097 10.2331C2.72862 9.92625 2.41909 9.34758 2.2788 9.0132L1.35667 9.40009L0.434543 9.78697C0.623718 10.2379 0.992105 10.9259 1.26125 11.3341L2.09611 10.7836ZM1.35667 9.40009L2.28041 9.01707C2.26983 8.99156 1.82573 7.89938 1.82573 7.01869H0.825728H-0.174272C-0.174272 7.70776 -0.0143156 8.40333 0.128031 8.89489C0.201322 9.14797 0.274788 9.36318 0.330896 9.51756C0.359039 9.595 0.383049 9.65777 0.400807 9.70308C0.409693 9.72575 0.417029 9.74409 0.422552 9.75774C0.425315 9.76456 0.427618 9.77021 0.429428 9.77462C0.430334 9.77682 0.431106 9.7787 0.431739 9.78023C0.432055 9.78099 0.432327 9.78165 0.432551 9.78219C0.432747 9.78266 0.432966 9.78319 0.432929 9.7831L1.35667 9.40009ZM0.825728 7.01869H1.82573C1.82573 4.15617 4.15617 1.82573 7.01869 1.82573V0.825728V-0.174272C3.0516 -0.174272 -0.174272 3.0516 -0.174272 7.01869H0.825728ZM7.01869 0.825728V1.82573C9.8812 1.82573 12.2116 4.15617 12.2116 7.01869H13.2116H14.2116C14.2116 3.0516 10.9858 -0.174272 7.01869 -0.174272V0.825728ZM13.2116 7.01869H12.2116C12.2116 7.43358 12.1093 7.92148 11.9878 8.34116C11.8688 8.75226 11.7511 9.03157 11.7636 9.00289L12.6811 9.4005L13.5987 9.79811C13.6165 9.75705 13.764 9.39786 13.9089 8.89735C14.0514 8.40544 14.2116 7.70862 14.2116 7.01869H13.2116Z" fill="var(--stroke-0, #213C2E)" mask="url(#path-1-inside-1_0_7)"/>
</g>
<g id="Vector_2">
<mask id="path-3-inside-2_0_7" fill="white">
<path d="M7.01851 3.30322C4.96947 3.30322 3.30273 4.97037 3.30273 7.019C3.30273 9.06763 4.96947 10.7348 7.01851 10.7348C9.06755 10.7348 10.7343 9.06763 10.7343 7.019C10.7343 4.97037 9.06755 3.30322 7.01851 3.30322ZM7.01851 9.90905C5.42527 9.90905 4.12846 8.61265 4.12846 7.019C4.12846 5.42534 5.42527 4.12895 7.01851 4.12895C8.61175 4.12895 9.90856 5.42534 9.90856 7.019C9.90856 8.61265 8.61175 9.90905 7.01851 9.90905Z"/>
</mask>
<path d="M7.01851 3.30322C4.96947 3.30322 3.30273 4.97037 3.30273 7.019C3.30273 9.06763 4.96947 10.7348 7.01851 10.7348C9.06755 10.7348 10.7343 9.06763 10.7343 7.019C10.7343 4.97037 9.06755 3.30322 7.01851 3.30322ZM7.01851 9.90905C5.42527 9.90905 4.12846 8.61265 4.12846 7.019C4.12846 5.42534 5.42527 4.12895 7.01851 4.12895C8.61175 4.12895 9.90856 5.42534 9.90856 7.019C9.90856 8.61265 8.61175 9.90905 7.01851 9.90905Z" fill="var(--fill-0, #213C2E)" fill-opacity="0.79"/>
<path d="M7.01851 3.30322V2.30322C4.41711 2.30322 2.30273 4.41815 2.30273 7.019H3.30273H4.30273C4.30273 5.52258 5.52182 4.30322 7.01851 4.30322V3.30322ZM3.30273 7.019H2.30273C2.30273 9.61984 4.41711 11.7348 7.01851 11.7348V10.7348V9.73477C5.52182 9.73477 4.30273 8.51542 4.30273 7.019H3.30273ZM7.01851 10.7348V11.7348C9.61991 11.7348 11.7343 9.61984 11.7343 7.019H10.7343H9.73429C9.73429 8.51542 8.5152 9.73477 7.01851 9.73477V10.7348ZM10.7343 7.019H11.7343C11.7343 4.41815 9.61991 2.30322 7.01851 2.30322V3.30322V4.30322C8.5152 4.30322 9.73429 5.52258 9.73429 7.019H10.7343ZM7.01851 9.90905V8.90905C5.97746 8.90905 5.12846 8.06028 5.12846 7.019H4.12846H3.12846C3.12846 9.16503 4.87308 10.909 7.01851 10.909V9.90905ZM4.12846 7.019H5.12846C5.12846 5.97772 5.97746 5.12895 7.01851 5.12895V4.12895V3.12895C4.87308 3.12895 3.12846 4.87297 3.12846 7.019H4.12846ZM7.01851 4.12895V5.12895C8.05956 5.12895 8.90856 5.97772 8.90856 7.019H9.90856H10.9086C10.9086 4.87297 9.16394 3.12895 7.01851 3.12895V4.12895ZM9.90856 7.019H8.90856C8.90856 8.06028 8.05956 8.90905 7.01851 8.90905V9.90905V10.909C9.16394 10.909 10.9086 9.16503 10.9086 7.019H9.90856Z" fill="var(--stroke-0, #213C2E)" mask="url(#path-3-inside-2_0_7)"/>
</g>
</g>
</svg>
