<svg preserveAspectRatio="none" width="100%" height="100%" overflow="visible" style="display: block;" viewBox="0 0 17 17" fill="none" xmlns="http://www.w3.org/2000/svg">
<g id="Group">
<path id="Vector" d="M8.50019 2.77193C8.70345 2.77193 8.86976 2.60562 8.86976 2.40236V2.21758C8.86976 2.01432 8.70345 1.84802 8.50019 1.84802C8.29693 1.84802 8.13062 2.01432 8.13062 2.21758V2.40236C8.13062 2.60562 8.29693 2.77193 8.50019 2.77193ZM8.50019 14.2285C8.29693 14.2285 8.13062 14.3948 8.13062 14.598V14.7828C8.13062 14.9861 8.29693 15.1524 8.50019 15.1524C8.70345 15.1524 8.86976 14.9861 8.86976 14.7828V14.598C8.86976 14.3948 8.70345 14.2285 8.50019 14.2285ZM2.40236 8.13062H2.21758C2.01432 8.13062 1.84802 8.29693 1.84802 8.50019C1.84802 8.70345 2.01432 8.86976 2.21758 8.86976H2.40236C2.60562 8.86976 2.77193 8.70345 2.77193 8.50019C2.77193 8.29693 2.60562 8.13062 2.40236 8.13062ZM14.7828 8.13062H14.598C14.3948 8.13062 14.2285 8.29693 14.2285 8.50019C14.2285 8.70345 14.3948 8.86976 14.598 8.86976H14.7828C14.9861 8.86976 15.1524 8.70345 15.1524 8.50019C15.1524 8.29693 14.9861 8.13062 14.7828 8.13062ZM4.3241 3.80671C4.17628 3.65889 3.95454 3.65889 3.80671 3.80671C3.65889 3.95454 3.65889 4.17628 3.80671 4.3241L3.93606 4.45345C4.00997 4.52736 4.10236 4.56432 4.19476 4.56432C4.28715 4.56432 4.37954 4.52736 4.45345 4.45345C4.60128 4.30562 4.60128 4.08389 4.45345 3.93606L4.3241 3.80671ZM3.93606 12.5469L3.80671 12.6763C3.65889 12.8241 3.65889 13.0458 3.80671 13.1937C3.88062 13.2676 3.97302 13.3045 4.06541 13.3045C4.1578 13.3045 4.25019 13.2676 4.3241 13.1937L4.45345 13.0643C4.60128 12.9165 4.60128 12.6948 4.45345 12.5469C4.30562 12.3991 4.08389 12.3991 3.93606 12.5469ZM12.6763 3.80671L12.5469 3.93606C12.3991 4.08389 12.3991 4.30562 12.5469 4.45345C12.6208 4.52736 12.7132 4.56432 12.8056 4.56432C12.898 4.56432 12.9904 4.52736 13.0643 4.45345L13.1937 4.3241C13.3415 4.17628 13.3415 3.95454 13.1937 3.80671C13.0458 3.65889 12.8241 3.65889 12.6763 3.80671ZM8.86976 8.35236V4.98932C8.86976 4.78606 8.70345 4.61976 8.50019 4.61976C8.29693 4.61976 8.13062 4.78606 8.13062 4.98932V8.50019C8.13062 8.59258 8.16758 8.68497 8.24149 8.75889L12.2882 12.8056C12.3621 12.8795 12.4545 12.9165 12.5469 12.9165C12.6393 12.9165 12.7317 12.8795 12.8056 12.8056C12.9535 12.6578 12.9535 12.4361 12.8056 12.2882L8.86976 8.35236Z" fill="var(--fill-0, #213C2E)"/>
<path id="Vector_2" d="M8.5 0C3.80652 0 0 3.80652 0 8.5C0 13.1935 3.80652 17 8.5 17C13.1935 17 17 13.1935 17 8.5C17 3.80652 13.1935 0 8.5 0ZM8.5 16.2609C4.21304 16.2609 0.73913 12.787 0.73913 8.5C0.73913 4.21304 4.21304 0.73913 8.5 0.73913C12.787 0.73913 16.2609 4.21304 16.2609 8.5C16.2609 12.787 12.787 16.2609 8.5 16.2609Z" fill="var(--fill-0, #213C2E)"/>
</g>
</svg>
