<svg preserveAspectRatio="none" width="100%" height="100%" overflow="visible" style="display: block;" viewBox="0 0 28.5714 20" fill="none" xmlns="http://www.w3.org/2000/svg">
<g id="Group">
<path id="Vector" fill-rule="evenodd" clip-rule="evenodd" d="M0 10C0 9.21102 0.639593 8.57143 1.42857 8.57143H27.1429C27.9318 8.57143 28.5714 9.21102 28.5714 10C28.5714 10.789 27.9318 11.4286 27.1429 11.4286H1.42857C0.639594 11.4286 0 10.789 0 10ZM0 1.42857C0 0.639594 0.639593 0 1.42857 0H27.1429C27.9318 0 28.5714 0.639594 28.5714 1.42857C28.5714 2.21755 27.9318 2.85714 27.1429 2.85714H1.42857C0.639594 2.85714 0 2.21755 0 1.42857ZM0 18.5714C0 17.7825 0.639593 17.1429 1.42857 17.1429H27.1429C27.9318 17.1429 28.5714 17.7825 28.5714 18.5714C28.5714 19.3604 27.9318 20 27.1429 20H1.42857C0.639594 20 0 19.3604 0 18.5714Z" fill="#F3F3F3"/>
</g>
</svg>
