<svg preserveAspectRatio="none" width="100%" height="100%" overflow="visible" style="display: block;" viewBox="0 0 13 13" fill="none" xmlns="http://www.w3.org/2000/svg">
<path id="Vector" d="M3.9 9.61133L6.5 7.01133L9.1 9.61133L9.61133 9.1L7.01133 6.5L9.61133 3.9L9.1 3.38867L6.5 5.98867L3.9 3.38867L3.38867 3.9L5.98867 6.5L3.38867 9.1L3.9 9.61133ZM6.50217 13C5.60372 13 4.75872 12.8296 3.96717 12.4887C3.17609 12.1473 2.48781 11.6841 1.90233 11.0991C1.31685 10.5141 0.853426 9.82655 0.512056 9.03644C0.170685 8.24633 0 7.40157 0 6.50217C0 5.60276 0.170685 4.75776 0.512056 3.96717C0.852945 3.17609 1.31541 2.48781 1.89944 1.90233C2.48348 1.31685 3.17128 0.853426 3.96283 0.512056C4.75439 0.170685 5.59939 0 6.49783 0C7.39628 0 8.24128 0.170685 9.03283 0.512056C9.82391 0.852944 10.5122 1.31565 11.0977 1.90017C11.6831 2.48468 12.1466 3.17248 12.4879 3.96356C12.8293 4.75463 13 5.59939 13 6.49783C13 7.39628 12.8296 8.24128 12.4887 9.03283C12.1478 9.82439 11.6846 10.5127 11.0991 11.0977C10.5136 11.6827 9.82607 12.1461 9.03644 12.4879C8.24681 12.8298 7.40206 13.0005 6.50217 13Z" fill="#213C2E"/>
</svg>
