<svg preserveAspectRatio="none" width="100%" height="100%" overflow="visible" style="display: block;" viewBox="0 0 16.9551 10.667" fill="none" xmlns="http://www.w3.org/2000/svg">
<path id="Cellular Connection" d="M1.99512 6.66699C2.54574 6.66722 2.99219 7.11485 2.99219 7.66699V9.66699C2.99201 10.219 2.54563 10.6668 1.99512 10.667H0.99707C0.446486 10.6668 0.00017573 10.219 0 9.66699V7.66699C0 7.1148 0.446378 6.66714 0.99707 6.66699H1.99512ZM6.64941 4.66699C7.20001 4.66725 7.64648 5.11487 7.64648 5.66699V9.66699C7.64631 10.219 7.1999 10.6667 6.64941 10.667H5.65137C5.10077 10.6669 4.65447 10.219 4.6543 9.66699V5.66699C4.6543 5.11479 5.10066 4.66712 5.65137 4.66699H6.64941ZM11.3037 2.33301C11.8542 2.33327 12.3006 2.78104 12.3008 3.33301V9.66699C12.3006 10.219 11.8542 10.6667 11.3037 10.667H10.3057C9.75505 10.6669 9.30877 10.2191 9.30859 9.66699V3.33301C9.30877 2.78094 9.75505 2.33312 10.3057 2.33301H11.3037ZM15.957 0C16.5078 0 16.9551 0.447715 16.9551 1V9.66699C16.9549 10.2191 16.5077 10.667 15.957 10.667H14.96C14.4093 10.6669 13.9631 10.2191 13.9629 9.66699V1C13.9629 0.447763 14.4092 7.7154e-05 14.96 0H15.957Z" fill="white"/>
</svg>
