<svg preserveAspectRatio="none" width="100%" height="100%" overflow="visible" style="display: block;" viewBox="0 0 24.4243 26.0001" fill="none" xmlns="http://www.w3.org/2000/svg">
<g id="Group 129">
<path id="Vector" d="M24.4242 22.3761C24.4242 22.6229 24.3277 22.8595 24.1559 23.034C23.9841 23.2085 23.7512 23.3066 23.5083 23.3066H17.2801C17.0761 24.0793 16.6269 24.7621 16.002 25.2491C15.3772 25.7361 14.6116 26 13.8241 26C13.0365 26 12.271 25.7361 11.6462 25.2491C11.0213 24.7621 10.5721 24.0793 10.3681 23.3066H0.915919C0.673006 23.3066 0.440041 23.2085 0.268275 23.034C0.0965098 22.8595 1.29342e-05 22.6229 1.29342e-05 22.3761C1.29342e-05 22.1293 0.0965098 21.8927 0.268275 21.7182C0.440041 21.5437 0.673006 21.4456 0.915919 21.4456H10.3681C10.5721 20.6729 11.0213 19.9901 11.6462 19.5031C12.271 19.0161 13.0365 18.7522 13.8241 18.7522C14.6116 18.7522 15.3772 19.0161 16.002 19.5031C16.6269 19.9901 17.0761 20.6729 17.2801 21.4456H23.5083C23.7512 21.4456 23.9841 21.5437 24.1559 21.7182C24.3277 21.8927 24.4242 22.1293 24.4242 22.3761ZM24.4242 5.98754C24.4242 6.23432 24.3277 6.47099 24.1559 6.64548C23.9841 6.81998 23.7512 6.91801 23.5083 6.91801H20.5163C20.3123 7.69076 19.8631 8.37355 19.2382 8.86053C18.6134 9.3475 17.8478 9.61145 17.0603 9.61145C16.2727 9.61145 15.5072 9.3475 14.8824 8.86053C14.2575 8.37355 13.8083 7.69076 13.6043 6.91801H0.915919C0.79564 6.91801 0.67654 6.89394 0.565417 6.84718C0.454294 6.80042 0.353325 6.73188 0.268275 6.64548C0.183226 6.55908 0.115761 6.45651 0.069732 6.34362C0.0237035 6.23073 1.29342e-05 6.10973 1.29342e-05 5.98754C1.29342e-05 5.86535 0.0237035 5.74436 0.069732 5.63147C0.115761 5.51858 0.183226 5.41601 0.268275 5.32961C0.353325 5.24321 0.454294 5.17467 0.565417 5.12791C0.67654 5.08115 0.79564 5.05708 0.915919 5.05708H13.6043C13.8083 4.28433 14.2575 3.60154 14.8824 3.11456C15.5072 2.62759 16.2727 2.36364 17.0603 2.36364C17.8478 2.36364 18.6134 2.62759 19.2382 3.11456C19.8631 3.60154 20.3123 4.28433 20.5163 5.05708H23.5083C23.629 5.05541 23.7488 5.07834 23.8607 5.12451C23.9726 5.17068 24.0742 5.23915 24.1596 5.32589C24.2449 5.41263 24.3124 5.51586 24.3578 5.62951C24.4032 5.74315 24.4258 5.86489 24.4242 5.98754ZM24.4242 14.1756C24.4258 14.2983 24.4032 14.42 24.3578 14.5337C24.3124 14.6473 24.2449 14.7505 24.1596 14.8373C24.0742 14.924 23.9726 14.9925 23.8607 15.0387C23.7488 15.0848 23.629 15.1077 23.5083 15.1061H9.22013C9.01614 15.8788 8.56689 16.5616 7.94204 17.0486C7.31719 17.5356 6.55165 17.7995 5.76411 17.7995C4.97657 17.7995 4.21103 17.5356 3.58619 17.0486C2.96134 16.5616 2.51209 15.8788 2.3081 15.1061H0.915919C0.673006 15.1061 0.440041 15.008 0.268275 14.8336C0.0965098 14.6591 1.29342e-05 14.4224 1.29342e-05 14.1756C1.29342e-05 13.9288 0.0965098 13.6922 0.268275 13.5177C0.440041 13.3432 0.673006 13.2452 0.915919 13.2452H2.3081C2.51209 12.4724 2.96134 11.7896 3.58619 11.3026C4.21103 10.8157 4.97657 10.5517 5.76411 10.5517C6.55165 10.5517 7.31719 10.8157 7.94204 11.3026C8.56689 11.7896 9.01614 12.4724 9.22013 13.2452H23.5083C23.7512 13.2452 23.9841 13.3432 24.1559 13.5177C24.3277 13.6922 24.4242 13.9288 24.4242 14.1756Z" fill="#213C2E"/>
<circle id="Ellipse 14" cx="2.75759" cy="2.75758" r="2.75758" fill="#A71E1E"/>
</g>
</svg>
