<svg preserveAspectRatio="none" width="100%" height="100%" overflow="visible" style="display: block;" viewBox="0 0 26 22" fill="none" xmlns="http://www.w3.org/2000/svg">
<g id="Group">
<path id="Vector" fill-rule="evenodd" clip-rule="evenodd" d="M14.7079 21.7678H23.2385C23.7846 21.7678 24.3083 21.5508 24.6945 21.1647C25.0807 20.7785 25.2976 20.2548 25.2976 19.7087V13.5372L14.7079 13.5266V21.7678ZM12.943 7.05986H2.05911C1.513 7.05986 0.989256 7.2768 0.603098 7.66295C0.216941 8.04911 0 8.57285 0 9.11896V19.7087C0 20.8465 0.92248 21.7678 2.05911 21.7678H12.943V7.05986ZM18.2378 17.9437V15.5904C18.2378 15.3564 18.1448 15.1319 17.9793 14.9664C17.8138 14.8009 17.5894 14.708 17.3553 14.708C17.1213 14.708 16.8968 14.8009 16.7313 14.9664C16.5658 15.1319 16.4729 15.3564 16.4729 15.5904V17.9437C16.4729 18.1778 16.5658 18.4022 16.7313 18.5677C16.8968 18.7332 17.1213 18.8262 17.3553 18.8262C17.5894 18.8262 17.8138 18.7332 17.9793 18.5677C18.1448 18.4022 18.2378 18.1778 18.2378 17.9437ZM21.7677 17.9437V15.5904C21.7677 15.3564 21.6747 15.1319 21.5092 14.9664C21.3437 14.8009 21.1193 14.708 20.8852 14.708C20.6512 14.708 20.4267 14.8009 20.2612 14.9664C20.0957 15.1319 20.0028 15.3564 20.0028 15.5904V17.9437C20.0028 18.1778 20.0957 18.4022 20.2612 18.5677C20.4267 18.7332 20.6512 18.8262 20.8852 18.8262C21.1193 18.8262 21.3437 18.7332 21.5092 18.5677C21.6747 18.4022 21.7677 18.1778 21.7677 17.9437ZM4.41237 18.8262H10.2955C10.5296 18.8262 10.754 18.7332 10.9195 18.5677C11.085 18.4022 11.178 18.1778 11.178 17.9437C11.178 17.7097 11.085 17.4852 10.9195 17.3197C10.754 17.1542 10.5296 17.0612 10.2955 17.0612H4.41237C4.17833 17.0612 3.95386 17.1542 3.78837 17.3197C3.62287 17.4852 3.5299 17.7097 3.5299 17.9437C3.5299 18.1778 3.62287 18.4022 3.78837 18.5677C3.95386 18.7332 4.17833 18.8262 4.41237 18.8262ZM4.41237 15.2963H10.2955C10.5296 15.2963 10.754 15.2033 10.9195 15.0378C11.085 14.8723 11.178 14.6479 11.178 14.4138C11.178 14.1798 11.085 13.9553 10.9195 13.7898C10.754 13.6243 10.5296 13.5313 10.2955 13.5313H4.41237C4.17833 13.5313 3.95386 13.6243 3.78837 13.7898C3.62287 13.9553 3.5299 14.1798 3.5299 14.4138C3.5299 14.6479 3.62287 14.8723 3.78837 15.0378C3.95386 15.2033 4.17833 15.2963 4.41237 15.2963ZM14.7079 7.05986V11.7617L25.2976 11.7723V9.11896C25.2976 8.57285 25.0807 8.04911 24.6945 7.66295C24.3083 7.2768 23.7846 7.05986 23.2385 7.05986H14.7079ZM4.41237 11.7664H6.76564C6.99968 11.7664 7.22414 11.6734 7.38964 11.5079C7.55514 11.3424 7.64811 11.118 7.64811 10.8839C7.64811 10.6499 7.55514 10.4254 7.38964 10.2599C7.22414 10.0944 6.99968 10.0014 6.76564 10.0014H4.41237C4.17833 10.0014 3.95386 10.0944 3.78837 10.2599C3.62287 10.4254 3.5299 10.6499 3.5299 10.8839C3.5299 11.118 3.62287 11.3424 3.78837 11.5079C3.95386 11.6734 4.17833 11.7664 4.41237 11.7664ZM5.1713 5.88322H22.2984L20.1098 1.18964C19.9956 0.944453 19.8342 0.724177 19.6348 0.54139C19.4355 0.358602 19.202 0.216886 18.9479 0.124337C18.6937 0.0317876 18.4238 -0.00978137 18.1536 0.00200492C17.8834 0.0137912 17.6181 0.0787018 17.373 0.193028L5.1713 5.88322Z" fill="var(--fill-0, white)"/>
</g>
</svg>
